<svg xmlns="http://www.w3.org/2000/svg" width="200" height="200" viewBox="0 0 200 200"><title>molecule-40</title><g><path fill="#574bf5" d="M112.99 106.31l41.12-5.07c2.78-0.33 5.15-2 6.45-4.47l20.12-40.13c1.5-3 1.05-6.6-1.12-9.12l-29.25-34.04c-1.78-2.15-4.52-3.15-7.32-2.81l-41.15 5.05c-2.78 0.33-5.15 2-6.4 4.48l-20.17 40.09c-1.5 3-1.05 6.6 1.17 9.13l29.2 34.07c1.78 2.15 4.57 3.15 7.35 2.82z m34.74-20.99l-32.41 3.94-22.75-26.44 15.69-31.2 32.37-3.95 22.73 26.45-15.63 31.2z"></path><path fill="#574bf5" d="M122.04 180.43l41.2-5.07c2.78-0.33 5.15-2 6.39-4.48l20.18-40.09c1.5-3 1.05-6.6-1.13-9.17l-29.29-34.03c-1.78-2.15-4.52-3.15-7.26-2.82l-41.21 5.07c-2.78 0.33-5.15 2-6.35 4.48l-20.17 40.12c-1.5 3-1.05 6.6 1.12 9.14l29.26 34.03c1.78 2.15 4.57 3.15 7.26 2.82z m34.77-20.97l-32.37 3.95-22.77-26.43 15.67-31.21 32.37-3.98 22.79 26.47-15.69 31.2z"></path><path fill="#574bf5" d="M51.62 151.46l41.17-5.07c2.78-0.33 5.15-2 6.38-4.48l20.17-40.07c1.5-3 1.05-6.6-1.12-9.18l-29.25-34.02c-1.78-2.15-4.57-3.15-7.26-2.82l-41.21 5.05c-2.78 0.33-5.15 2-6.43 4.48l-20.12 40.14c-1.5 3-1.05 6.6 1.12 9.12l29.3 34.03c1.78 2.15 4.57 3.15 7.25 2.82z m34.73-21l-32.36 3.98-22.74-26.43 15.64-31.2 32.4-3.99 22.8 26.44-15.74 31.2z"></path></g></svg>